<svg xmlns="http://www.w3.org/2000/svg" xmlns:xlink="http://www.w3.org/1999/xlink" viewBox="0 0 56 56"><defs><style>.cls-1{fill:url(#linear-gradient);}.cls-2{fill:none;stroke:#fff;stroke-linecap:round;stroke-linejoin:round;}</style><linearGradient id="linear-gradient" y1="28" x2="55.94" y2="28" gradientUnits="userSpaceOnUse"><stop offset="0" stop-color="#9747ff"/><stop offset="0.21" stop-color="#934aff"/><stop offset="0.43" stop-color="#8652ff"/><stop offset="0.65" stop-color="#725fff"/><stop offset="0.87" stop-color="#5572ff"/><stop offset="1" stop-color="#4080ff"/></linearGradient></defs><g id="Layer_2" data-name="Layer 2"><g id="Services_Page" data-name="Services Page"><g id="sp_-_i3" data-name="sp - i3"><g id="Decarbonization_Roadmap_planning" data-name="Decarbonization Roadmap planning"><rect id="BG" class="cls-1" width="56" height="56" rx="8"/><path class="cls-2" d="M15,11.5A3.5,3.5,0,1,1,11.5,8,3.5,3.5,0,0,1,15,11.5ZM25.64,22.14a3.5,3.5,0,1,0,3.5,3.5A3.5,3.5,0,0,0,25.64,22.14ZM19.32,37.9a3.5,3.5,0,1,0,3.5,3.5A3.5,3.5,0,0,0,19.32,37.9ZM34.5,8A3.5,3.5,0,1,0,38,11.5,3.5,3.5,0,0,0,34.5,8ZM48,35.66l-4-4H34.75V48H48Zm-4-4v4.87h4m-9.62,4h6m-6,3.2h6M17.76,11.44H28m-2.23,30.2h6m.12-16h8.66a7.58,7.58,0,0,0,7.35-6c.64-3.91-2.59-8.16-7.35-8.46M19.15,25.64H11.44A3.69,3.69,0,0,0,8.3,29.58V38a2.9,2.9,0,0,0,.16,1c.35,1,1.41,2.8,4.5,2.8"/></g></g></g></g></svg>