<svg xmlns="http://www.w3.org/2000/svg" xmlns:xlink="http://www.w3.org/1999/xlink" viewBox="0 0 56 56"><defs><style>.cls-1{fill:url(#linear-gradient);}.cls-2{fill:none;stroke:#fff;stroke-linecap:round;stroke-linejoin:round;}</style><linearGradient id="linear-gradient" y1="28" x2="55.94" y2="28" gradientUnits="userSpaceOnUse"><stop offset="0" stop-color="#9747ff"/><stop offset="0.21" stop-color="#934aff"/><stop offset="0.43" stop-color="#8652ff"/><stop offset="0.65" stop-color="#725fff"/><stop offset="0.87" stop-color="#5572ff"/><stop offset="1" stop-color="#4080ff"/></linearGradient></defs><g id="Layer_2" data-name="Layer 2"><g id="Products_Page" data-name="Products Page"><g id="pp_-_i19" data-name="pp - i19"><g id="Sensors"><rect id="BG" class="cls-1" width="56" height="56" rx="8"/><path class="cls-2" d="M19.74,37.17a14.83,14.83,0,0,1,0-25.34m-2.5-3.78a19.27,19.27,0,0,0,0,32.91m21.43,0a19.27,19.27,0,0,0,0-33M36.2,37.21a14.83,14.83,0,0,0,0-25.41M33.71,33.4a10.36,10.36,0,0,0,0-17.78m-2,14.64a6.69,6.69,0,0,0,0-11.51m-7.36,0a6.69,6.69,0,0,0,0,11.5M22.25,15.63a10.36,10.36,0,0,0,0,17.75M28,27.12a2.61,2.61,0,1,0-2.68-2.61A2.64,2.64,0,0,0,28,27.12ZM30.67,47V36.83a1,1,0,0,0-1-1H26.33a1,1,0,0,0-1,1V47a1,1,0,0,0,1,1h3.34A1,1,0,0,0,30.67,47ZM28,27.12v8.71m0-11.46a.14.14,0,0,0-.14.14.14.14,0,0,0,.28,0A.14.14,0,0,0,28,24.37ZM25.33,44.85h5.34"/></g></g></g></g></svg>