<svg width="56" height="56" viewBox="0 0 56 56" fill="none" xmlns="http://www.w3.org/2000/svg">
<g clip-path="url(#clip0_713_7516)">
<path d="M19.7398 37.17C17.5649 35.847 15.7672 33.9864 14.5197 31.7674C13.2722 29.5484 12.6169 27.0456 12.6169 24.5C12.6169 21.9543 13.2722 19.4515 14.5197 17.2325C15.7672 15.0135 17.5649 13.1529 19.7398 11.83M17.2398 8.04996C14.4175 9.76995 12.0851 12.1869 10.4666 15.0686C8.84813 17.9503 7.99805 21.1999 7.99805 24.505C7.99805 27.81 8.84813 31.0596 10.4666 33.9413C12.0851 36.823 14.4175 39.24 17.2398 40.96M38.6698 40.96C41.5124 39.2451 43.8637 36.825 45.4959 33.9341C47.1281 31.0433 47.9858 27.7798 47.9858 24.46C47.9858 21.1402 47.1281 17.8767 45.4959 14.9858C43.8637 12.095 41.5124 9.67482 38.6698 7.95996M36.1998 37.21C38.3905 35.891 40.2029 34.028 41.4611 31.8019C42.7193 29.5757 43.3805 27.0621 43.3805 24.505C43.3805 21.9479 42.7193 19.4342 41.4611 17.2081C40.2029 14.9819 38.3905 13.1189 36.1998 11.8M33.7098 33.4C35.2468 32.4803 36.5191 31.1778 37.4025 29.6197C38.2859 28.0616 38.7503 26.3011 38.7503 24.51C38.7503 22.7188 38.2859 20.9583 37.4025 19.4002C36.5191 17.8421 35.2468 16.5396 33.7098 15.62M31.7098 30.26C32.7088 29.6678 33.5365 28.8258 34.1114 27.8167C34.6863 26.8076 34.9886 25.6663 34.9886 24.505C34.9886 23.3436 34.6863 22.2023 34.1114 21.1932C33.5365 20.1841 32.7088 19.3421 31.7098 18.75M24.3498 18.75C23.3531 19.3427 22.5275 20.1844 21.9542 21.1925C21.3808 22.2005 21.0794 23.3403 21.0794 24.5C21.0794 25.6596 21.3808 26.7994 21.9542 27.8075C22.5275 28.8155 23.3531 29.6572 24.3498 30.25M22.2498 15.63C20.7196 16.5514 19.4537 17.8528 18.5749 19.4079C17.6961 20.9629 17.2343 22.7188 17.2343 24.505C17.2343 26.2911 17.6961 28.047 18.5749 29.602C19.4537 31.1571 20.7196 32.4585 22.2498 33.38M27.9998 27.12C28.5128 27.1062 29.0104 26.9415 29.4303 26.6465C29.8502 26.3514 30.1738 25.9392 30.3606 25.4612C30.5475 24.9833 30.5893 24.4608 30.4808 23.9592C30.3723 23.4576 30.1184 22.9991 29.7508 22.6411C29.3831 22.283 28.9181 22.0413 28.4138 21.9462C27.9095 21.851 27.3883 21.9066 26.9155 22.1061C26.4426 22.3055 26.0391 22.6399 25.7553 23.0675C25.4714 23.495 25.32 23.9968 25.3198 24.51C25.3237 24.8575 25.3962 25.2009 25.5331 25.5203C25.6701 25.8398 25.8687 26.1291 26.1177 26.3716C26.3667 26.6141 26.6612 26.805 26.9841 26.9334C27.3071 27.0619 27.6523 27.1252 27.9998 27.12ZM27.9998 27.12V35.83M25.3298 44.85H30.6698M30.6698 47V36.83C30.6698 36.5647 30.5644 36.3104 30.3769 36.1229C30.1894 35.9353 29.935 35.83 29.6698 35.83H26.3298C26.0646 35.83 25.8102 35.9353 25.6227 36.1229C25.4351 36.3104 25.3298 36.5647 25.3298 36.83V47C25.3298 47.2652 25.4351 47.5195 25.6227 47.7071C25.8102 47.8946 26.0646 48 26.3298 48H29.6698C29.8011 48 29.9311 47.9741 30.0525 47.9238C30.1738 47.8736 30.284 47.7999 30.3769 47.7071C30.4698 47.6142 30.5434 47.504 30.5937 47.3826C30.6439 47.2613 30.6698 47.1313 30.6698 47ZM27.9998 24.37C27.9627 24.37 27.9271 24.3847 27.9008 24.411C27.8745 24.4372 27.8598 24.4728 27.8598 24.51C27.8598 24.5471 27.8745 24.5827 27.9008 24.609C27.9271 24.6352 27.9627 24.65 27.9998 24.65C28.0369 24.65 28.0725 24.6352 28.0988 24.609C28.125 24.5827 28.1398 24.5471 28.1398 24.51C28.1398 24.4728 28.125 24.4372 28.0988 24.411C28.0725 24.3847 28.0369 24.37 27.9998 24.37Z" stroke="white" stroke-linecap="round" stroke-linejoin="round"/>
</g>
<defs>
<clipPath id="clip0_713_7516">
<rect width="56" height="56" fill="white"/>
</clipPath>
</defs>
</svg>
