<svg width="56" height="56" viewBox="0 0 56 56" fill="none" xmlns="http://www.w3.org/2000/svg">
<g clip-path="url(#clip0_713_7586)">
<path d="M8 34.55H48M31.21 11V34.08M34.76 24.49H43.76M34.76 27.99H43.76M34.76 31.49H43.76M22.83 38.82L20.77 42.39C20.5946 42.6939 20.5021 43.0386 20.5021 43.3895C20.502 43.7404 20.5942 44.0851 20.7695 44.3891C20.9448 44.6931 21.197 44.9456 21.5007 45.1213C21.8045 45.297 22.1491 45.3896 22.5 45.39H33.5C33.8509 45.3896 34.1955 45.297 34.4993 45.1213C34.803 44.9456 35.0552 44.6931 35.2305 44.3891C35.4058 44.0851 35.498 43.7404 35.498 43.3895C35.4979 43.0386 35.4054 42.6939 35.23 42.39L33.17 38.82M45 38.82H11C10.2044 38.82 9.44129 38.5039 8.87868 37.9413C8.31607 37.3787 8 36.6156 8 35.82V13.5C8 12.7044 8.31607 11.9413 8.87868 11.3787C9.44129 10.8161 10.2044 10.5 11 10.5H45C45.7956 10.5 46.5587 10.8161 47.1213 11.3787C47.6839 11.9413 48 12.7044 48 13.5V35.82C48 36.6156 47.6839 37.3787 47.1213 37.9413C46.5587 38.5039 45.7956 38.82 45 38.82ZM28.19 19.68V14.83C28.19 14.5648 28.0846 14.3104 27.8971 14.1229C27.7096 13.9354 27.4552 13.83 27.19 13.83H12.42C12.1548 13.83 11.9004 13.9354 11.7129 14.1229C11.5254 14.3104 11.42 14.5648 11.42 14.83V19.68C11.42 19.9452 11.5254 20.1996 11.7129 20.3871C11.9004 20.5746 12.1548 20.68 12.42 20.68H27.19C27.4552 20.68 27.7096 20.5746 27.8971 20.3871C28.0846 20.1996 28.19 19.9452 28.19 19.68ZM43.76 19.68V14.83C43.76 14.5648 43.6546 14.3104 43.4671 14.1229C43.2796 13.9354 43.0252 13.83 42.76 13.83H35.76C35.4948 13.83 35.2404 13.9354 35.0529 14.1229C34.8654 14.3104 34.76 14.5648 34.76 14.83V19.68C34.76 19.9452 34.8654 20.1996 35.0529 20.3871C35.2404 20.5746 35.4948 20.68 35.76 20.68H42.76C43.0252 20.68 43.2796 20.5746 43.4671 20.3871C43.6546 20.1996 43.76 19.9452 43.76 19.68ZM18.62 30.49V25.49C18.62 25.2248 18.5146 24.9704 18.3271 24.7829C18.1396 24.5954 17.8852 24.49 17.62 24.49H12.42C12.1548 24.49 11.9004 24.5954 11.7129 24.7829C11.5254 24.9704 11.42 25.2248 11.42 25.49V30.49C11.42 30.7552 11.5254 31.0096 11.7129 31.1971C11.9004 31.3846 12.1548 31.49 12.42 31.49H17.62C17.8852 31.49 18.1396 31.3846 18.3271 31.1971C18.5146 31.0096 18.62 30.7552 18.62 30.49ZM28.19 30.49V25.49C28.19 25.2248 28.0846 24.9704 27.8971 24.7829C27.7096 24.5954 27.4552 24.49 27.19 24.49H22C21.7348 24.49 21.4804 24.5954 21.2929 24.7829C21.1054 24.9704 21 25.2248 21 25.49V30.49C21 30.7552 21.1054 31.0096 21.2929 31.1971C21.4804 31.3846 21.7348 31.49 22 31.49H27.21C27.4717 31.4848 27.721 31.3771 27.9042 31.1901C28.0874 31.0032 28.1901 30.7518 28.19 30.49Z" stroke="white" stroke-linecap="round" stroke-linejoin="round"/>
</g>
<defs>
<clipPath id="clip0_713_7586">
<rect width="56" height="56" fill="white"/>
</clipPath>
</defs>
</svg>
