<svg xmlns="http://www.w3.org/2000/svg" xmlns:xlink="http://www.w3.org/1999/xlink" viewBox="0 0 56 56"><defs><style>.cls-1{fill:url(#linear-gradient);}.cls-2{fill:none;stroke:#fff;stroke-linecap:round;stroke-linejoin:round;}</style><linearGradient id="linear-gradient" y1="28" x2="55.94" y2="28" gradientUnits="userSpaceOnUse"><stop offset="0" stop-color="#9747ff"/><stop offset="0.21" stop-color="#934aff"/><stop offset="0.43" stop-color="#8652ff"/><stop offset="0.65" stop-color="#725fff"/><stop offset="0.87" stop-color="#5572ff"/><stop offset="1" stop-color="#4080ff"/></linearGradient></defs><g id="Layer_2" data-name="Layer 2"><g id="Home_Page" data-name="Home Page"><g id="hp_-_i1" data-name="hp - i1"><g id="Digital_Solution" data-name="Digital Solution"><rect id="BG" class="cls-1" width="56" height="56" rx="8"/><path class="cls-2" d="M32.07,43.3H23.93a2,2,0,0,1-2-2V37.71H34.07V41.3A2,2,0,0,1,32.07,43.3Zm-.34.85V43.3H24.27v.85a3.35,3.35,0,0,0,3.35,3.35h.76A3.35,3.35,0,0,0,31.73,44.15Zm-.66-6.44a10.27,10.27,0,1,0-6.14,0m7.74-11.29-.43-1a.45.45,0,0,1,0-.46l.55-.76a.47.47,0,0,0,0-.58,6.54,6.54,0,0,0-.81-.77.48.48,0,0,0-.58,0l-.73.59a.45.45,0,0,1-.46.07l-1-.38a.47.47,0,0,1-.29-.35l-.14-.93a.47.47,0,0,0-.43-.39,6,6,0,0,0-1.12,0,.48.48,0,0,0-.4.42l-.1.93a.47.47,0,0,1-.27.38l-1,.43a.48.48,0,0,1-.46-.05l-.76-.55a.45.45,0,0,0-.57,0,6,6,0,0,0-.78.81.48.48,0,0,0,0,.58l.6.73a.46.46,0,0,1,.07.45l-.38,1a.45.45,0,0,1-.36.29L22,27.1a.46.46,0,0,0-.39.42,5.25,5.25,0,0,0,0,1.12A.46.46,0,0,0,22,29l.94.1a.47.47,0,0,1,.37.27l.43,1a.45.45,0,0,1-.05.46l-.55.76a.47.47,0,0,0,0,.58A6.54,6.54,0,0,0,24,33a.48.48,0,0,0,.58,0l.73-.59a.48.48,0,0,1,.46-.08l1,.38A.49.49,0,0,1,27,33l.14.93a.47.47,0,0,0,.43.39,5.26,5.26,0,0,0,1.12,0,.46.46,0,0,0,.4-.41l.1-.94a.47.47,0,0,1,.27-.37l1-.43a.45.45,0,0,1,.46.05l.76.55a.45.45,0,0,0,.57,0,6,6,0,0,0,.78-.81.48.48,0,0,0,0-.58l-.59-.73a.44.44,0,0,1-.08-.45l.38-1a.45.45,0,0,1,.36-.29l.93-.15a.46.46,0,0,0,.39-.42,5.25,5.25,0,0,0,0-1.12.45.45,0,0,0-.41-.4l-.94-.1A.47.47,0,0,1,32.67,26.42ZM28,25.54a2.38,2.38,0,1,0,2.38,2.37A2.38,2.38,0,0,0,28,25.54Zm-.17-17a1.9,1.9,0,1,0,1.9,1.9A1.9,1.9,0,0,0,27.83,8.5Zm0,4.08v2.9M37.6,11a1.89,1.89,0,1,0,.7,2.59A1.89,1.89,0,0,0,37.6,11Zm-2,3.53-1.46,2.51m10.69,1a1.9,1.9,0,1,0-.69,2.59A1.9,1.9,0,0,0,44.8,18.1Zm-3.53,2-2.51,1.45m8.74,6.24a1.9,1.9,0,1,0-1.9,1.9A1.9,1.9,0,0,0,47.5,27.83Zm-4.08,0h-2.9M45,37.6a1.89,1.89,0,1,0-2.59.7A1.89,1.89,0,0,0,45,37.6Zm-3.53-2-2.51-1.46M11.2,37.9a1.9,1.9,0,1,0,.69-2.59A1.9,1.9,0,0,0,11.2,37.9Zm3.53-2,2.51-1.45M8.5,28.17a1.9,1.9,0,1,0,1.9-1.9A1.9,1.9,0,0,0,8.5,28.17Zm4.08,0h2.9M11,18.4a1.89,1.89,0,1,0,2.59-.7A1.89,1.89,0,0,0,11,18.4Zm3.53,2,2.51,1.46m1-10.69a1.9,1.9,0,1,0,2.59.69A1.9,1.9,0,0,0,18.1,11.2Zm2,3.53,1.45,2.51"/></g></g></g></g></svg>