<svg xmlns="http://www.w3.org/2000/svg" xmlns:xlink="http://www.w3.org/1999/xlink" viewBox="0 0 56 56"><defs><style>.cls-1{fill:url(#linear-gradient);}.cls-2{fill:none;stroke:#fff;stroke-linecap:round;stroke-linejoin:round;}</style><linearGradient id="linear-gradient" y1="28" x2="55.94" y2="28" gradientUnits="userSpaceOnUse"><stop offset="0" stop-color="#9747ff"/><stop offset="0.21" stop-color="#934aff"/><stop offset="0.43" stop-color="#8652ff"/><stop offset="0.65" stop-color="#725fff"/><stop offset="0.87" stop-color="#5572ff"/><stop offset="1" stop-color="#4080ff"/></linearGradient></defs><g id="Layer_2" data-name="Layer 2"><g id="Services_Page" data-name="Services Page"><g id="sp_-_i4" data-name="sp - i4"><g id="Cost_Benefit_analysis" data-name="Cost Benefit analysis"><rect id="BG" class="cls-1" width="56" height="56" rx="8"/><path class="cls-2" d="M14,36.87H8V8H48V36.87H42M11.67,12.18h4.71m-4.71,7.46h4.71m-4.71-3.75H20m24.31,3.79H39.58m4.71,7.46H39.58m4.71-3.75H36m1.75-10.88L28,21.28l-4.65-3.84L14,26.73M38,16.29,38.39,12,34.1,11.9M24.35,40h5.83a1.69,1.69,0,0,0,1.46-1.64,1.8,1.8,0,0,0-2-2.22H26.11a1.82,1.82,0,0,1-.22-3.62h5.77M28,24.75a11.63,11.63,0,1,0,11.6,11.62A11.61,11.61,0,0,0,28,24.75ZM28,40v3.81M28,29v3.6"/></g></g></g></g></svg>